<?xml version="1.0" encoding="utf-8"?>
<!-- Generator: Adobe Illustrator 16.0.0, SVG Export Plug-In . SVG Version: 6.00 Build 0)  -->
<!DOCTYPE svg PUBLIC "-//W3C//DTD SVG 1.1//EN" "http://www.w3.org/Graphics/SVG/1.1/DTD/svg11.dtd">
<svg version="1.1" id="Layer_1" xmlns="http://www.w3.org/2000/svg" xmlns:xlink="http://www.w3.org/1999/xlink" x="0px" y="0px"
	 width="11.987px" height="18.816px" viewBox="0 0 11.987 18.816" enable-background="new 0 0 11.987 18.816" xml:space="preserve">
<g>
	<g>
		<line fill="none" stroke="#00A9BE" stroke-miterlimit="10" x1="6.604" y1="2.001" x2="6.604" y2="1.001"/>
		<g>
			<g>
				<path fill="#00A9BE" d="M10.641,1.268c-0.02,0.523-0.03,1.29,0.01,2.395c0.02,0.512-0.191,0.649-1.087,0.82
					c-0.389,0.075-0.182,0.38-0.301,0.801c-0.15,0.382-1.065,0.457-1.065,0.457C7.991,5.745,7.986,5.858,8.017,5.924
					C8.649,7.42,7.69,9.002,7.855,9.038c0.756,0.275,0.698,1.03,0.503,1.125c0.341-0.021,0.622,0.502,0.542,0.662
					c-0.306,0.577-0.527,0.588-0.668,0.99c-0.316,0.733-0.66,0.577-0.698,1.28c-0.027,0.513-0.112,0.683-0.221,0.804
					c-0.521,0.532-1.215,0.07-1.446-0.251c-0.542,0.12-1.202-0.663-1.654-0.844c-0.005,0.241-0.061,0.608-0.253,1.175
					c-0.102,0.296,0.047,0.226-0.006,0.743c-0.062,0.699-0.135,0.964-0.235,1.185c-0.06,0.129-0.045,0.805-0.166,1.154
					c-0.161,1.115-1.165,0.939-1.261,0.914c-0.04-0.01-0.04-0.02-0.04-0.229c0.021-0.281-0.126-0.785-0.06-1.197
					c0.02-0.16-0.051-0.412,0-0.803c-0.086-0.488,0.044-0.844-0.158-1.412C2.009,14.25,2.09,14.269,2.072,14.08
					c-0.011-0.101-0.091-0.088-0.056-0.384c0.039-0.339,0.004-0.771,0.004-1.183c0-0.412-0.084-0.733-0.169-1.737
					C1.815,10.365,1.63,10.042,1.78,9.742c0.229-0.458,0.924-2.049,1.768-3.756C3.565,5.95,3.65,5.8,3.427,5.705
					C3.072,5.514,3.176,5.403,3.196,4.73C3.177,4.25,2.808,4.606,2.819,4.078c0.018-0.813,0.085-1.2,0.061-2.387
					C2.87,1.208,2.853,1.001,3.193,1.001h7.226C10.529,1.001,10.641,1.119,10.641,1.268z"/>
				<path fill="#FFFFFF" d="M2.495,17.736c0.319,0.029,0.241-0.562,0.193-0.799c-0.027-0.141-0.25-0.246-0.301-0.105l0.08,0.873
					C2.467,17.718,2.488,17.738,2.495,17.736z"/>
				<path fill="#FFFFFF" d="M6.223,13.028c0.052-0.342,0.192-0.311,0.168-0.494c-0.034-0.242-0.126-0.025-0.105-0.854
					c0-0.24-0.017-0.371,0.085-0.532c-0.066-0.08-0.156-0.271-0.041-0.401c-0.061-0.301-0.096-0.194,0.021-0.704
					c0.156-0.686-0.124-0.823-0.28-1.141C6.03,8.816,6,8.76,6.025,8.594c0.153-1.266,0.149-0.718,0.043-2.473
					C5.953,5.514,5.626,5.278,4.803,5.304c-0.934,0.05-0.804,0.25-1.024,0.763c-0.924,2.079-1.717,3.475-1.677,4.017
					c0.021,1.537,0.302,1.256,0.241,3.284c-0.08,0.643,0.25,0.623,0.211,0.863c-0.101,0.182-0.197,0.032-0.141,0.653
					c0.115,1.26-0.1,1.512,0.1,1.627c0.268,0.154,0.436,0.15,0.366,0.969c-0.005,0.066-0.007,0.088-0.014,0.127
					c-0.024,0.102,0.036,0.105,0.11,0.008c0.062-0.08,0.385-0.746,0.261-1.525c-0.07-0.443,0.102-0.212,0.102-0.945
					c-0.021-0.321-0.021-0.521-0.042-0.622c0.122-0.321,0.131-0.944,0.082-1.146c-0.062-0.246-0.142-0.361-0.021-0.582
					c0.121-0.22,0.287-0.704,0.201-1.425c-0.101-0.844-0.264-0.799-0.201-0.884c0.149-0.196,0.425,0.205,0.743-0.211
					c0.164-0.214-0.491-0.442-0.481-0.653c0.018-0.126,0.133-0.15,0.271-0.09c0.065,0.028,0.438,0.279,0.592,0.07
					c0.252-0.342-0.502-0.954-0.19-1.427c0.085-0.11,0.206,0.008,0.19,0.141C4.454,8.543,4.674,8.929,4.813,9.089
					c0.19,0.211,0.481,0.813,0.572,1.035c0.321,0.783,0.081,1.043,0.281,1.185c0.15,0.12-0.076,0.364-0.121,0.643
					c-0.086,0.525,0.347,1.732,0.613,1.617c0.088-0.044,0.081-0.126,0.061-0.234C6.201,13.222,6.199,13.179,6.223,13.028z"/>
				<path fill="#FFFFFF" d="M6.872,12.734c-0.262,0.121-0.297,0.134-0.352,0.387c-0.049,0.222,0.141,0.864,0.412,0.778
					c0.085-0.066,0.09-0.336,0.13-0.507C7.104,13.212,7.168,12.649,6.872,12.734z"/>
				<path fill="#FFFFFF" d="M8.997,4.833c-0.013,0.258-0.17,0.289-0.338,0.33C8.418,5.221,7.414,5.042,6.148,5.021
					c-1.265-0.02-1.627,0.021-2.31,0.081C3.671,5.117,3.46,5.252,3.448,5.021C3.406,4.27,3.347,4.038,3.938,3.917
					c0.693-0.14,3.387-0.16,4.801,0.021C8.852,4,9.072,3.847,8.997,4.833z"/>
			</g>
		</g>
	</g>
</g>
</svg>
