<?xml version="1.0" encoding="utf-8"?>
<!-- Generator: Adobe Illustrator 16.0.0, SVG Export Plug-In . SVG Version: 6.00 Build 0)  -->
<!DOCTYPE svg PUBLIC "-//W3C//DTD SVG 1.1//EN" "http://www.w3.org/Graphics/SVG/1.1/DTD/svg11.dtd">
<svg version="1.1" id="Layer_1" xmlns="http://www.w3.org/2000/svg" xmlns:xlink="http://www.w3.org/1999/xlink" x="0px" y="0px"
	 width="32px" height="32px" viewBox="0 0 32 32" enable-background="new 0 0 32 32" xml:space="preserve">
<g display="none">
	<path display="inline" fill="#121111" d="M16,30.499C8.005,30.499,1.5,23.995,1.5,16S8.005,1.501,16,1.501S30.499,8.005,30.499,16
		S23.995,30.499,16,30.499z M16,2.208C8.395,2.208,2.208,8.395,2.208,16S8.395,29.792,16,29.792c7.604,0,13.792-6.187,13.792-13.792
		S23.604,2.208,16,2.208z"/>
	<path display="inline" fill="#121111" d="M22.365,12.74c-0.469,0.208-0.972,0.348-1.5,0.412c0.54-0.323,0.954-0.835,1.148-1.444
		c-0.505,0.299-1.062,0.516-1.66,0.632c-0.475-0.507-1.154-0.824-1.905-0.824c-1.442,0-2.611,1.169-2.611,2.611
		c0,0.205,0.022,0.404,0.067,0.595c-2.17-0.109-4.094-1.147-5.384-2.729c-0.225,0.388-0.353,0.836-0.353,1.315
		c0,0.904,0.461,1.704,1.162,2.173c-0.428-0.013-0.831-0.131-1.184-0.326v0.032c0,1.266,0.9,2.322,2.096,2.561
		c-0.219,0.062-0.449,0.092-0.688,0.092c-0.167,0-0.332-0.016-0.491-0.047c0.333,1.038,1.297,1.793,2.44,1.813
		c-0.894,0.701-2.021,1.118-3.244,1.118c-0.211,0-0.418-0.012-0.623-0.035c1.156,0.74,2.53,1.172,4.004,1.172
		c4.806,0,7.432-3.979,7.432-7.431c0-0.113-0.002-0.227-0.008-0.338C21.573,13.724,22.017,13.263,22.365,12.74"/>
</g>
<g>
	<path fill="#FFFFFF" d="M15.999,30.497C8.005,30.497,1.502,23.993,1.502,16c0-7.994,6.503-14.497,14.497-14.497
		c7.994,0,14.498,6.503,14.498,14.497C30.497,23.993,23.993,30.497,15.999,30.497z M15.999,2.21C8.396,2.21,2.209,8.396,2.209,16
		c0,7.605,6.186,13.791,13.79,13.791c7.605,0,13.791-6.186,13.791-13.791C29.79,8.396,23.604,2.21,15.999,2.21z"/>
	<path fill="#FFFFFF" d="M12.929,13.844h1.316v-1.279c0-0.564,0.014-1.434,0.423-1.973c0.432-0.57,1.024-0.958,2.043-0.958
		c1.659,0,2.359,0.237,2.359,0.237l-0.328,1.949c0,0-0.549-0.159-1.062-0.159c-0.512,0-0.97,0.184-0.97,0.695v1.487h2.099
		l-0.146,1.904h-1.952v6.616h-2.466v-6.616h-1.316V13.844z"/>
</g>
</svg>
